<svg xmlns="http://www.w3.org/2000/svg" xmlns:xlink="http://www.w3.org/1999/xlink" width="1129" zoomAndPan="magnify" viewBox="270 188 320 78" height="578" preserveAspectRatio="xMidYMid meet" version="1.0"><defs><g/></defs><g fill="#ec4899" fill-opacity="1"><g transform="translate(283.316225, 257.331132)"><g><path d="M 28.359375 -49.3125 C 27.335938 -48.570312 26.828125 -47.75 26.828125 -46.84375 C 26.828125 -45.945312 27.503906 -45.5 28.859375 -45.5 C 29.441406 -45.5 30.191406 -45.664062 31.109375 -46 L 31.15625 -46 C 31.3125 -46 31.390625 -45.679688 31.390625 -45.046875 C 31.390625 -44.421875 31.328125 -44.050781 31.203125 -43.9375 C 28.046875 -41.695312 25.378906 -40.578125 23.203125 -40.578125 C 21.023438 -40.578125 19.445312 -41.1875 18.46875 -42.40625 C 17.488281 -43.632812 17 -45.234375 17 -47.203125 C 17 -49.179688 18.085938 -51.28125 20.265625 -53.5 C 22.441406 -55.726562 25.367188 -57.785156 29.046875 -59.671875 C 32.722656 -61.554688 37.28125 -63.109375 42.71875 -64.328125 C 48.15625 -65.554688 54.265625 -66.171875 61.046875 -66.171875 C 67.828125 -66.171875 73.5 -64.84375 78.0625 -62.1875 C 82.632812 -59.539062 84.921875 -56.523438 84.921875 -53.140625 C 84.921875 -49.753906 83.734375 -46.316406 81.359375 -42.828125 C 78.984375 -39.335938 76.007812 -36.296875 72.4375 -33.703125 C 68.875 -31.117188 64.914062 -29 60.5625 -27.34375 C 56.21875 -25.6875 52.328125 -24.859375 48.890625 -24.859375 C 45.460938 -24.859375 42.796875 -26.238281 40.890625 -29 C 36.234375 -21.675781 33.078125 -16.671875 31.421875 -13.984375 C 29.773438 -11.304688 28.375 -9.054688 27.21875 -7.234375 C 26.070312 -5.410156 25.1875 -3.976562 24.5625 -2.9375 C 23.9375 -1.894531 23.609375 -1.359375 23.578125 -1.328125 C 22.929688 -0.628906 22.238281 -0.28125 21.5 -0.28125 L 19.25 0.140625 L 18.15625 0.046875 L 17.375 0.046875 C 15.5625 0.046875 14.65625 -0.519531 14.65625 -1.65625 C 14.65625 -3.09375 17.671875 -8.515625 23.703125 -17.921875 C 29.742188 -27.328125 35.4375 -35.859375 40.78125 -43.515625 C 46.125 -51.171875 49.238281 -55.472656 50.125 -56.421875 C 51.019531 -57.378906 51.8125 -57.941406 52.5 -58.109375 C 53.1875 -58.273438 54.296875 -58.359375 55.828125 -58.359375 L 58.125 -58.359375 C 58.519531 -58.359375 58.71875 -58.039062 58.71875 -57.40625 C 58.71875 -56.78125 58.644531 -56.347656 58.5 -56.109375 C 55.800781 -52.335938 50.929688 -44.894531 43.890625 -33.78125 C 44.128906 -33.289062 44.53125 -32.984375 45.09375 -32.859375 C 45.664062 -32.734375 46.273438 -32.671875 46.921875 -32.671875 L 48.25 -32.671875 C 51.070312 -32.671875 54.117188 -33.351562 57.390625 -34.71875 C 60.671875 -36.082031 63.550781 -37.710938 66.03125 -39.609375 C 68.507812 -41.503906 70.582031 -43.484375 72.25 -45.546875 C 73.925781 -47.617188 74.765625 -49.390625 74.765625 -50.859375 C 74.765625 -52.335938 74.300781 -53.65625 73.375 -54.8125 C 72.457031 -55.976562 71.203125 -56.898438 69.609375 -57.578125 C 66.492188 -58.890625 62.707031 -59.546875 58.25 -59.546875 C 53.789062 -59.546875 48.410156 -58.390625 42.109375 -56.078125 C 35.816406 -53.765625 31.234375 -51.507812 28.359375 -49.3125 Z M 28.359375 -49.3125 "/></g></g></g><g fill="#ec4899" fill-opacity="1"><g transform="translate(351.233642, 257.331132)"><g><path d="M 34.046875 -35.015625 C 34.960938 -35.015625 35.90625 -34.597656 36.875 -33.765625 C 37.84375 -32.941406 38.328125 -31.679688 38.328125 -29.984375 C 38.328125 -28.285156 37.726562 -26.078125 36.53125 -23.359375 C 35.332031 -20.648438 33.691406 -17.894531 31.609375 -15.09375 C 29.523438 -12.289062 27.234375 -9.65625 24.734375 -7.1875 C 22.242188 -4.726562 19.550781 -2.707031 16.65625 -1.125 C 13.757812 0.445312 11.128906 1.234375 8.765625 1.234375 C 6.410156 1.234375 4.519531 0.492188 3.09375 -0.984375 C 1.675781 -2.472656 0.96875 -4.539062 0.96875 -7.1875 C 0.96875 -9.84375 1.617188 -12.773438 2.921875 -15.984375 C 4.222656 -19.203125 5.898438 -22.046875 7.953125 -24.515625 C 10.003906 -26.984375 12.222656 -29.195312 14.609375 -31.15625 C 19.609375 -35.164062 23.988281 -37.171875 27.75 -37.171875 C 29.4375 -37.171875 30.707031 -36.757812 31.5625 -35.9375 C 31.875 -35.65625 32.03125 -35.410156 32.03125 -35.203125 L 32.03125 -34.921875 C 32.457031 -34.984375 33.128906 -35.015625 34.046875 -35.015625 Z M 29.40625 -28.90625 L 29.09375 -28.90625 C 28.019531 -28.90625 27.484375 -29.6875 27.484375 -31.25 C 25.242188 -30.507812 22.894531 -29.21875 20.4375 -27.375 C 17.988281 -25.539062 15.800781 -23.367188 13.875 -20.859375 C 9.957031 -15.835938 7.96875 -11.597656 7.90625 -8.140625 C 7.90625 -6.421875 8.53125 -5.5625 9.78125 -5.5625 C 11.039062 -5.5625 12.910156 -6.382812 15.390625 -8.03125 C 17.867188 -9.6875 20.328125 -12.046875 22.765625 -15.109375 C 25.203125 -18.179688 27.023438 -20.84375 28.234375 -23.09375 C 29.441406 -25.34375 30.046875 -26.875 30.046875 -27.6875 C 30.046875 -28.5 29.832031 -28.90625 29.40625 -28.90625 Z M 29.40625 -28.90625 "/></g></g></g><g fill="#ec4899" fill-opacity="1"><g transform="translate(385.697825, 257.331132)"><g><path d="M 7.90625 -9.1875 L 7.859375 -8.453125 C 7.859375 -7.691406 8.148438 -7.035156 8.734375 -6.484375 C 9.316406 -5.929688 9.851562 -5.65625 10.34375 -5.65625 C 14.019531 -5.65625 17.273438 -6.203125 20.109375 -7.296875 C 22.941406 -8.398438 24.359375 -9.503906 24.359375 -10.609375 C 24.359375 -11.128906 23.84375 -11.582031 22.8125 -11.96875 C 21.789062 -12.351562 20.0625 -12.828125 17.625 -13.390625 C 15.1875 -13.960938 13.414062 -14.40625 12.3125 -14.71875 C 11.207031 -15.039062 10.332031 -15.335938 9.6875 -15.609375 C 9.050781 -15.890625 8.394531 -16.273438 7.71875 -16.765625 C 6.28125 -17.773438 5.5625 -19.285156 5.5625 -21.296875 C 5.5625 -23.304688 6.300781 -25.296875 7.78125 -27.265625 C 9.269531 -29.242188 11.128906 -30.9375 13.359375 -32.34375 C 15.597656 -33.757812 18.007812 -35.003906 20.59375 -36.078125 C 25.675781 -38.191406 29.945312 -39.25 33.40625 -39.25 C 36.800781 -39.25 38.898438 -38.507812 39.703125 -37.03125 C 39.941406 -36.507812 40.0625 -35.929688 40.0625 -35.296875 L 40.0625 -34.96875 C 40.0625 -33.34375 39.71875 -32.070312 39.03125 -31.15625 C 38.34375 -30.238281 37.253906 -29.410156 35.765625 -28.671875 C 34.285156 -27.941406 33.109375 -27.578125 32.234375 -27.578125 C 31.359375 -27.578125 30.804688 -27.632812 30.578125 -27.75 C 30.347656 -27.875 30.15625 -28.035156 30 -28.234375 C 29.851562 -28.429688 29.664062 -28.578125 29.4375 -28.671875 C 29.207031 -28.765625 29.09375 -28.992188 29.09375 -29.359375 C 29.09375 -29.734375 29.242188 -30.109375 29.546875 -30.484375 C 29.847656 -30.867188 30.0625 -31.273438 30.1875 -31.703125 C 28.164062 -31.609375 26.050781 -31.140625 23.84375 -30.296875 C 21.644531 -29.460938 19.753906 -28.523438 18.171875 -27.484375 C 16.597656 -26.441406 15.289062 -25.441406 14.25 -24.484375 C 13.207031 -23.535156 12.6875 -22.835938 12.6875 -22.390625 C 12.6875 -21.953125 13.390625 -21.597656 14.796875 -21.328125 C 21.140625 -20.066406 25.304688 -18.976562 27.296875 -18.0625 C 29.285156 -17.144531 30.660156 -16.101562 31.421875 -14.9375 C 32.191406 -13.769531 32.578125 -12.710938 32.578125 -11.765625 C 32.578125 -9.804688 31.796875 -7.953125 30.234375 -6.203125 C 28.671875 -4.453125 26.742188 -3.03125 24.453125 -1.9375 C 19.515625 0.488281 15.210938 1.703125 11.546875 1.703125 C 7.890625 1.703125 5.363281 1.140625 3.96875 0.015625 C 2.582031 -1.097656 1.890625 -2.421875 1.890625 -3.953125 C 1.890625 -5.484375 2.28125 -6.898438 3.0625 -8.203125 C 3.84375 -9.503906 4.84375 -10.15625 6.0625 -10.15625 C 7.289062 -10.15625 7.90625 -9.832031 7.90625 -9.1875 Z M 7.90625 -9.1875 "/></g></g></g><g fill="#ec4899" fill-opacity="1"><g transform="translate(420.299864, 257.331132)"><g><path d="M 7.90625 -9.1875 L 7.859375 -8.453125 C 7.859375 -7.691406 8.148438 -7.035156 8.734375 -6.484375 C 9.316406 -5.929688 9.851562 -5.65625 10.34375 -5.65625 C 14.019531 -5.65625 17.273438 -6.203125 20.109375 -7.296875 C 22.941406 -8.398438 24.359375 -9.503906 24.359375 -10.609375 C 24.359375 -11.128906 23.84375 -11.582031 22.8125 -11.96875 C 21.789062 -12.351562 20.0625 -12.828125 17.625 -13.390625 C 15.1875 -13.960938 13.414062 -14.40625 12.3125 -14.71875 C 11.207031 -15.039062 10.332031 -15.335938 9.6875 -15.609375 C 9.050781 -15.890625 8.394531 -16.273438 7.71875 -16.765625 C 6.28125 -17.773438 5.5625 -19.285156 5.5625 -21.296875 C 5.5625 -23.304688 6.300781 -25.296875 7.78125 -27.265625 C 9.269531 -29.242188 11.128906 -30.9375 13.359375 -32.34375 C 15.597656 -33.757812 18.007812 -35.003906 20.59375 -36.078125 C 25.675781 -38.191406 29.945312 -39.25 33.40625 -39.25 C 36.800781 -39.25 38.898438 -38.507812 39.703125 -37.03125 C 39.941406 -36.507812 40.0625 -35.929688 40.0625 -35.296875 L 40.0625 -34.96875 C 40.0625 -33.34375 39.71875 -32.070312 39.03125 -31.15625 C 38.34375 -30.238281 37.253906 -29.410156 35.765625 -28.671875 C 34.285156 -27.941406 33.109375 -27.578125 32.234375 -27.578125 C 31.359375 -27.578125 30.804688 -27.632812 30.578125 -27.75 C 30.347656 -27.875 30.15625 -28.035156 30 -28.234375 C 29.851562 -28.429688 29.664062 -28.578125 29.4375 -28.671875 C 29.207031 -28.765625 29.09375 -28.992188 29.09375 -29.359375 C 29.09375 -29.734375 29.242188 -30.109375 29.546875 -30.484375 C 29.847656 -30.867188 30.0625 -31.273438 30.1875 -31.703125 C 28.164062 -31.609375 26.050781 -31.140625 23.84375 -30.296875 C 21.644531 -29.460938 19.753906 -28.523438 18.171875 -27.484375 C 16.597656 -26.441406 15.289062 -25.441406 14.25 -24.484375 C 13.207031 -23.535156 12.6875 -22.835938 12.6875 -22.390625 C 12.6875 -21.953125 13.390625 -21.597656 14.796875 -21.328125 C 21.140625 -20.066406 25.304688 -18.976562 27.296875 -18.0625 C 29.285156 -17.144531 30.660156 -16.101562 31.421875 -14.9375 C 32.191406 -13.769531 32.578125 -12.710938 32.578125 -11.765625 C 32.578125 -9.804688 31.796875 -7.953125 30.234375 -6.203125 C 28.671875 -4.453125 26.742188 -3.03125 24.453125 -1.9375 C 19.515625 0.488281 15.210938 1.703125 11.546875 1.703125 C 7.890625 1.703125 5.363281 1.140625 3.96875 0.015625 C 2.582031 -1.097656 1.890625 -2.421875 1.890625 -3.953125 C 1.890625 -5.484375 2.28125 -6.898438 3.0625 -8.203125 C 3.84375 -9.503906 4.84375 -10.15625 6.0625 -10.15625 C 7.289062 -10.15625 7.90625 -9.832031 7.90625 -9.1875 Z M 7.90625 -9.1875 "/></g></g></g><g fill="#ec4899" fill-opacity="1"><g transform="translate(454.901904, 257.331132)"><g><path d="M 32.765625 -50.453125 C 32.765625 -48.703125 31.953125 -46.945312 30.328125 -45.1875 C 28.703125 -43.425781 27.007812 -42.546875 25.25 -42.546875 C 23.488281 -42.546875 22.609375 -43.460938 22.609375 -45.296875 C 22.609375 -47.140625 23.378906 -48.894531 24.921875 -50.5625 C 26.472656 -52.238281 28.179688 -53.078125 30.046875 -53.078125 C 30.878906 -53.078125 31.539062 -52.847656 32.03125 -52.390625 C 32.519531 -51.929688 32.765625 -51.285156 32.765625 -50.453125 Z M 25.3125 -10.34375 C 25.3125 -9.414062 25.222656 -8.753906 25.046875 -8.359375 C 23.546875 -5.296875 21.15625 -2.820312 17.875 -0.9375 C 14.59375 0.945312 11.742188 1.890625 9.328125 1.890625 C 6.910156 1.890625 4.828125 1.078125 3.078125 -0.546875 C 1.328125 -2.171875 0.453125 -3.828125 0.453125 -5.515625 C 0.453125 -7.203125 1.296875 -9.648438 2.984375 -12.859375 C 4.671875 -16.078125 6.351562 -19.050781 8.03125 -21.78125 C 9.71875 -24.507812 10.5625 -25.988281 10.5625 -26.21875 C 10.5625 -26.445312 10.25 -26.894531 9.625 -27.5625 C 9 -28.238281 8.6875 -28.738281 8.6875 -29.0625 C 8.6875 -29.382812 9.320312 -30.226562 10.59375 -31.59375 C 11.863281 -32.957031 13.410156 -34.304688 15.234375 -35.640625 C 17.054688 -36.972656 18.445312 -37.640625 19.40625 -37.640625 C 20.375 -37.640625 21.238281 -37.207031 22 -36.34375 C 22.769531 -35.488281 23.15625 -34.707031 23.15625 -34 C 23.15625 -33.300781 19.507812 -26.671875 12.21875 -14.109375 C 12.125 -13.921875 11.867188 -13.515625 11.453125 -12.890625 C 11.046875 -12.265625 10.726562 -11.742188 10.5 -11.328125 C 10.269531 -10.910156 10.003906 -10.410156 9.703125 -9.828125 C 9.085938 -8.609375 8.78125 -7.582031 8.78125 -6.75 C 8.78125 -5.707031 9.484375 -5.1875 10.890625 -5.1875 C 12.296875 -5.1875 13.753906 -5.671875 15.265625 -6.640625 C 16.785156 -7.609375 18.097656 -8.671875 19.203125 -9.828125 C 22.085938 -12.921875 23.726562 -14.46875 24.125 -14.46875 C 24.914062 -14.46875 25.3125 -13.09375 25.3125 -10.34375 Z M 25.3125 -10.34375 "/></g></g></g><g fill="#ec4899" fill-opacity="1"><g transform="translate(473.972085, 257.331132)"><g><path d="M 40.671875 -65.578125 C 34.203125 -55.859375 27.90625 -45.703125 21.78125 -35.109375 C 23.1875 -35.835938 24.769531 -36.363281 26.53125 -36.6875 C 28.289062 -37.007812 29.53125 -37.171875 30.25 -37.171875 C 30.976562 -37.171875 31.601562 -37.144531 32.125 -37.09375 C 32.644531 -37.050781 33.3125 -36.882812 34.125 -36.59375 C 34.9375 -36.3125 35.628906 -35.910156 36.203125 -35.390625 C 37.617188 -34.128906 38.328125 -32.347656 38.328125 -30.046875 C 38.328125 -27.753906 37.707031 -25.234375 36.46875 -22.484375 C 35.226562 -19.742188 33.539062 -16.992188 31.40625 -14.234375 C 29.28125 -11.484375 26.953125 -8.921875 24.421875 -6.546875 C 21.890625 -4.171875 19.171875 -2.234375 16.265625 -0.734375 C 13.359375 0.761719 10.648438 1.515625 8.140625 1.515625 C 6.972656 1.515625 5.628906 0.761719 4.109375 -0.734375 C 2.597656 -2.234375 1.84375 -4.207031 1.84375 -6.65625 C 1.84375 -9.113281 2.894531 -12.914062 5 -18.0625 C 7.113281 -23.207031 9.679688 -28.4375 12.703125 -33.75 C 15.722656 -39.0625 18.800781 -44.242188 21.9375 -49.296875 C 25.082031 -54.359375 27.753906 -58.492188 29.953125 -61.703125 C 32.160156 -64.921875 33.507812 -66.773438 34 -67.265625 C 34.488281 -67.765625 35.382812 -68.179688 36.6875 -68.515625 C 37.988281 -68.847656 39.113281 -69.003906 40.0625 -68.984375 C 41.019531 -68.972656 41.5 -68.539062 41.5 -67.6875 C 41.5 -67.132812 41.222656 -66.429688 40.671875 -65.578125 Z M 28.265625 -21.453125 C 29.515625 -23.660156 30.140625 -25.664062 30.140625 -27.46875 C 30.140625 -29.28125 29.566406 -30.1875 28.421875 -30.1875 C 27.273438 -30.1875 25.515625 -29.6875 23.140625 -28.6875 C 20.765625 -27.695312 19.40625 -27.203125 19.0625 -27.203125 C 18.726562 -27.203125 18.285156 -27.476562 17.734375 -28.03125 C 11.765625 -17.28125 8.78125 -10.414062 8.78125 -7.4375 C 8.78125 -6.0625 9.222656 -5.375 10.109375 -5.375 C 12.222656 -5.375 15.269531 -7.140625 19.25 -10.671875 C 23.238281 -14.210938 26.242188 -17.804688 28.265625 -21.453125 Z M 28.265625 -21.453125 "/></g></g></g><g fill="#ec4899" fill-opacity="1"><g transform="translate(509.033647, 257.331132)"><g><path d="M 40.9375 -68.96875 C 42.414062 -68.96875 43.710938 -68.53125 44.828125 -67.65625 C 45.941406 -66.789062 46.5 -65.5 46.5 -63.78125 C 46.5 -62.0625 45.550781 -59.367188 43.65625 -55.703125 C 41.757812 -52.046875 39.476562 -48.3125 36.8125 -44.5 C 34.144531 -40.6875 31.125 -36.632812 27.75 -32.34375 C 22.425781 -25.550781 17.3125 -19.441406 12.40625 -14.015625 C 12.375 -13.648438 12.242188 -12.96875 12.015625 -11.96875 C 11.785156 -10.976562 11.671875 -9.972656 11.671875 -8.953125 C 11.671875 -7.941406 12.132812 -7.03125 13.0625 -6.21875 C 14 -5.414062 15.15625 -5.015625 16.53125 -5.015625 C 17.914062 -5.015625 19.394531 -5.503906 20.96875 -6.484375 C 22.550781 -7.460938 23.925781 -8.546875 25.09375 -9.734375 C 28.15625 -12.890625 30.050781 -14.46875 30.78125 -14.46875 C 31.519531 -14.46875 31.890625 -13.351562 31.890625 -11.125 L 31.890625 -10.203125 C 31.890625 -9.003906 31.675781 -8.128906 31.25 -7.578125 C 28.675781 -4.421875 25.78125 -2.066406 22.5625 -0.515625 C 19.34375 1.023438 16.289062 1.796875 13.40625 1.796875 C 10.53125 1.796875 8.34375 0.914062 6.84375 -0.84375 C 5.34375 -2.613281 4.59375 -5.03125 4.59375 -8.09375 C 4.59375 -14.0625 6.191406 -21.082031 9.390625 -29.15625 C 12.597656 -37.226562 16.207031 -44.097656 20.21875 -49.765625 C 29.257812 -62.566406 36.164062 -68.96875 40.9375 -68.96875 Z M 38.875 -61.34375 C 38.875 -61.800781 38.722656 -62.03125 38.421875 -62.03125 C 37.347656 -62.03125 34.523438 -58.96875 29.953125 -52.84375 C 25.390625 -46.71875 22.085938 -41.832031 20.046875 -38.1875 C 18.015625 -34.539062 16.097656 -29.960938 14.296875 -24.453125 C 17.910156 -28.734375 22.910156 -35.414062 29.296875 -44.5 C 35.679688 -53.582031 38.875 -59.195312 38.875 -61.34375 Z M 38.875 -61.34375 "/></g></g></g><g fill="#ec4899" fill-opacity="1"><g transform="translate(533.296431, 257.331132)"><g><path d="M 34.46875 -34.375 C 34.46875 -32.351562 33.644531 -30.578125 32 -29.046875 C 30.363281 -27.515625 28.503906 -26.75 26.421875 -26.75 C 25.742188 -26.75 25.296875 -26.90625 25.078125 -27.21875 C 24.867188 -27.539062 24.765625 -27.960938 24.765625 -28.484375 C 24.765625 -29.003906 24.828125 -29.507812 24.953125 -30 C 23.847656 -29.632812 22.617188 -29.066406 21.265625 -28.296875 C 19.921875 -27.535156 18.269531 -26.40625 16.3125 -24.90625 C 14.351562 -23.40625 13.375 -22.285156 13.375 -21.546875 C 13.375 -21.304688 13.734375 -21.1875 14.453125 -21.1875 C 15.171875 -21.1875 16.28125 -21.4375 17.78125 -21.9375 C 19.28125 -22.445312 20.328125 -22.703125 20.921875 -22.703125 C 21.523438 -22.703125 21.921875 -22.671875 22.109375 -22.609375 C 22.503906 -22.390625 22.929688 -21.921875 23.390625 -21.203125 C 23.847656 -20.484375 24.078125 -19.914062 24.078125 -19.5 C 24.078125 -19.09375 23.675781 -18.550781 22.875 -17.875 C 22.082031 -17.195312 21.179688 -16.679688 20.171875 -16.328125 C 19.160156 -15.984375 18.488281 -15.71875 18.15625 -15.53125 C 11.6875 -11.914062 8.453125 -9.4375 8.453125 -8.09375 C 8.453125 -5.695312 10.488281 -4.5 14.5625 -4.5 C 17.164062 -4.5 19.785156 -5.328125 22.421875 -6.984375 C 24.660156 -8.390625 26.675781 -9.820312 28.46875 -11.28125 C 30.257812 -12.738281 31.390625 -13.632812 31.859375 -13.96875 C 32.335938 -14.300781 32.703125 -14.46875 32.953125 -14.46875 C 33.742188 -14.46875 34.140625 -13.578125 34.140625 -11.796875 C 34.140625 -10.023438 34.03125 -8.851562 33.8125 -8.28125 C 33.601562 -7.71875 32.992188 -7.023438 31.984375 -6.203125 C 25.429688 -0.867188 19.226562 1.796875 13.375 1.796875 C 10.25 1.796875 7.75 1.363281 5.875 0.5 C 2.445312 -1.0625 0.734375 -3.445312 0.734375 -6.65625 C 0.734375 -10.882812 3.660156 -14.085938 9.515625 -16.265625 C 8.347656 -16.785156 7.59375 -17.453125 7.25 -18.265625 C 6.914062 -19.078125 6.75 -20.378906 6.75 -22.171875 C 6.75 -23.960938 7.582031 -25.859375 9.25 -27.859375 C 10.925781 -29.867188 12.972656 -31.519531 15.390625 -32.8125 C 20.785156 -35.71875 25.597656 -37.171875 29.828125 -37.171875 C 30.835938 -37.171875 31.863281 -36.925781 32.90625 -36.4375 C 33.945312 -35.945312 34.46875 -35.257812 34.46875 -34.375 Z M 34.46875 -34.375 "/></g></g></g></svg>